# xmcd
#
# Track frame offsets:
#	150
#	10178
#	23311
#	34494
#	47469
#	59327
#	71012
#	81122
#	94952
#	108160
#	120880
#	131613
#
# Disc length: 1912 seconds
#
# Revision: 1
# Processed by: cddbd v1.5.2PL0 Copyright (c) Steve Scherf et al.
# Submitted via: audiograbber 1.83.01
#
DISCID=8e07760c
DTITLE=Ferlin Husky - The Hits Of
DYEAR=1963
DGENRE=Country
TTITLE0=Wings Of A Dove
TTITLE1=Walkin' And Hummin'
TTITLE2=I've Got A Woman's Love
TTITLE3=Little Tom
TTITLE4=Homesick
TTITLE5=Eli, The Camel
TTITLE6=Game
TTITLE7=Hank's Song
TTITLE8=The Waltz You Saved For Me
TTITLE9=Before I Lose My Mind
TTITLE10=Drunken Driver
TTITLE11=I'll Baby Sit With You
EXTD=
EXTT0=
EXTT1=
EXTT2=
EXTT3=
EXTT4=
EXTT5=
EXTT6=
EXTT7=
EXTT8=
EXTT9=
EXTT10=
EXTT11=
PLAYORDER=
